<?xml version="1.0" encoding="UTF-8" standalone="no"?>
<!DOCTYPE svg PUBLIC "-//W3C//DTD SVG 1.1//EN"
 "http://www.w3.org/Graphics/SVG/1.1/DTD/svg11.dtd">
<!-- Generated by graphviz version 2.40.1 (20161225.0304)
 -->
<!-- Title: dependencies Pages: 1 -->
<svg width="1870pt" height="284pt"
 viewBox="0.00 0.00 1870.00 284.00" xmlns="http://www.w3.org/2000/svg" xmlns:xlink="http://www.w3.org/1999/xlink">
<g id="graph0" class="graph" transform="scale(1 1) rotate(0) translate(4 280)">
<title>dependencies</title>
<polygon fill="#ffffff" stroke="transparent" points="-4,4 -4,-280 1866,-280 1866,4 -4,4"/>
<text text-anchor="start" x="910.0091" y="-42.4" font-family="sans-serif" font-weight="bold" font-size="14.00" fill="#000000">Legend</text>
<polygon fill="#ffffb3" stroke="transparent" points="697,-10 697,-30 717,-30 717,-10 697,-10"/>
<text text-anchor="start" x="720.629" y="-15.4" font-family="sans-serif" font-size="14.00" fill="#000000"> &#160;Declarations</text>
<polygon fill="#8dd3c7" stroke="transparent" points="810,-10 810,-30 830,-30 830,-10 810,-10"/>
<text text-anchor="start" x="833.7251" y="-15.4" font-family="sans-serif" font-size="14.00" fill="#000000"> &#160;Module</text>
<polygon fill="#80b1d3" stroke="transparent" points="896,-10 896,-30 916,-30 916,-10 896,-10"/>
<text text-anchor="start" x="919.7812" y="-15.4" font-family="sans-serif" font-size="14.00" fill="#000000"> &#160;Bootstrap</text>
<polygon fill="#fdb462" stroke="transparent" points="993,-10 993,-30 1013,-30 1013,-10 993,-10"/>
<text text-anchor="start" x="1016.6732" y="-15.4" font-family="sans-serif" font-size="14.00" fill="#000000"> &#160;Providers</text>
<polygon fill="#fb8072" stroke="transparent" points="1089,-10 1089,-30 1109,-30 1109,-10 1089,-10"/>
<text text-anchor="start" x="1112.7258" y="-15.4" font-family="sans-serif" font-size="14.00" fill="#000000"> &#160;Exports</text>
<g id="clust1" class="cluster">
<title>cluster_AppModule</title>
<polygon fill="none" stroke="#000000" stroke-dasharray="1,5" points="8,-70 8,-268 1854,-268 1854,-70 8,-70"/>
</g>
<g id="clust2" class="cluster">
<title>cluster_AppModule_declarations</title>
<polygon fill="none" stroke="#000000" points="442,-78 442,-130 1846,-130 1846,-78 442,-78"/>
</g>
<g id="clust13" class="cluster">
<title>cluster_AppModule_imports</title>
<polygon fill="none" stroke="#000000" points="158,-78 158,-130 434,-130 434,-78 158,-78"/>
</g>
<g id="clust15" class="cluster">
<title>cluster_AppModule_bootstrap</title>
<polygon fill="none" stroke="#000000" points="834,-208 834,-260 958,-260 958,-208 834,-208"/>
</g>
<g id="clust16" class="cluster">
<title>cluster_AppModule_providers</title>
<polygon fill="none" stroke="#000000" points="16,-78 16,-130 150,-130 150,-78 16,-78"/>
</g>
<!-- AppComponent -->
<g id="node1" class="node">
<title>AppComponent</title>
<polygon fill="#ffffb3" stroke="#000000" points="1837.9399,-122 1732.0601,-122 1732.0601,-86 1837.9399,-86 1837.9399,-122"/>
<text text-anchor="middle" x="1785" y="-99.8" font-family="Times,serif" font-size="14.00" fill="#000000">AppComponent</text>
</g>
<!-- AppModule -->
<g id="node11" class="node">
<title>AppModule</title>
<polygon fill="#8dd3c7" stroke="#000000" points="937.6571,-187 934.6571,-191 913.6571,-191 910.6571,-187 854.3429,-187 854.3429,-151 937.6571,-151 937.6571,-187"/>
<text text-anchor="middle" x="896" y="-164.8" font-family="Times,serif" font-size="14.00" fill="#000000">AppModule</text>
</g>
<!-- AppComponent&#45;&gt;AppModule -->
<g id="edge1" class="edge">
<title>AppComponent&#45;&gt;AppModule</title>
<path fill="none" stroke="#000000" d="M1785,-122.0908C1785,-145.1328 1785,-182 1785,-182 1785,-182 947.6859,-182 947.6859,-182"/>
<polygon fill="#000000" stroke="#000000" points="947.686,-178.5001 937.6859,-182 947.6859,-185.5001 947.686,-178.5001"/>
</g>
<!-- CreateLinkComponent -->
<g id="node2" class="node">
<title>CreateLinkComponent</title>
<polygon fill="#ffffb3" stroke="#000000" points="1714.3075,-122 1569.6925,-122 1569.6925,-86 1714.3075,-86 1714.3075,-122"/>
<text text-anchor="middle" x="1642" y="-99.8" font-family="Times,serif" font-size="14.00" fill="#000000">CreateLinkComponent</text>
</g>
<!-- CreateLinkComponent&#45;&gt;AppModule -->
<g id="edge2" class="edge">
<title>CreateLinkComponent&#45;&gt;AppModule</title>
<path fill="none" stroke="#000000" d="M1642,-122.0449C1642,-143.6623 1642,-177 1642,-177 1642,-177 947.7067,-177 947.7067,-177"/>
<polygon fill="#000000" stroke="#000000" points="947.7067,-173.5001 937.7067,-177 947.7067,-180.5001 947.7067,-173.5001"/>
</g>
<!-- LinkItemComponent -->
<g id="node3" class="node">
<title>LinkItemComponent</title>
<polygon fill="#ffffb3" stroke="#000000" points="1551.9327,-122 1418.0673,-122 1418.0673,-86 1551.9327,-86 1551.9327,-122"/>
<text text-anchor="middle" x="1485" y="-99.8" font-family="Times,serif" font-size="14.00" fill="#000000">LinkItemComponent</text>
</g>
<!-- LinkItemComponent&#45;&gt;AppModule -->
<g id="edge3" class="edge">
<title>LinkItemComponent&#45;&gt;AppModule</title>
<path fill="none" stroke="#000000" d="M1485,-122.2228C1485,-142.3652 1485,-172 1485,-172 1485,-172 947.8872,-172 947.8872,-172"/>
<polygon fill="#000000" stroke="#000000" points="947.8873,-168.5001 937.8872,-172 947.8872,-175.5001 947.8873,-168.5001"/>
</g>
<!-- LinkItemListComponent -->
<g id="node4" class="node">
<title>LinkItemListComponent</title>
<polygon fill="#ffffb3" stroke="#000000" points="1400.7105,-122 1245.2895,-122 1245.2895,-86 1400.7105,-86 1400.7105,-122"/>
<text text-anchor="middle" x="1323" y="-99.8" font-family="Times,serif" font-size="14.00" fill="#000000">LinkItemListComponent</text>
</g>
<!-- LinkItemListComponent&#45;&gt;AppModule -->
<g id="edge4" class="edge">
<title>LinkItemListComponent&#45;&gt;AppModule</title>
<path fill="none" stroke="#000000" d="M1323,-122.2222C1323,-140.8285 1323,-167 1323,-167 1323,-167 947.72,-167 947.72,-167"/>
<polygon fill="#000000" stroke="#000000" points="947.7201,-163.5001 937.72,-167 947.72,-170.5001 947.7201,-163.5001"/>
</g>
<!-- HeaderComponent -->
<g id="node5" class="node">
<title>HeaderComponent</title>
<polygon fill="#ffffb3" stroke="#000000" points="1227.7437,-122 1106.2563,-122 1106.2563,-86 1227.7437,-86 1227.7437,-122"/>
<text text-anchor="middle" x="1167" y="-99.8" font-family="Times,serif" font-size="14.00" fill="#000000">HeaderComponent</text>
</g>
<!-- HeaderComponent&#45;&gt;AppModule -->
<g id="edge5" class="edge">
<title>HeaderComponent&#45;&gt;AppModule</title>
<path fill="none" stroke="#000000" d="M1167,-122.0336C1167,-139.0597 1167,-162 1167,-162 1167,-162 947.7498,-162 947.7498,-162"/>
<polygon fill="#000000" stroke="#000000" points="947.7499,-158.5001 937.7498,-162 947.7498,-165.5001 947.7499,-158.5001"/>
</g>
<!-- LoginComponent -->
<g id="node6" class="node">
<title>LoginComponent</title>
<polygon fill="#ffffb3" stroke="#000000" points="1088.2758,-122 973.7242,-122 973.7242,-86 1088.2758,-86 1088.2758,-122"/>
<text text-anchor="middle" x="1031" y="-99.8" font-family="Times,serif" font-size="14.00" fill="#000000">LoginComponent</text>
</g>
<!-- LoginComponent&#45;&gt;AppModule -->
<g id="edge6" class="edge">
<title>LoginComponent&#45;&gt;AppModule</title>
<path fill="none" stroke="#000000" d="M1031,-122.2396C1031,-137.5706 1031,-157 1031,-157 1031,-157 947.9748,-157 947.9748,-157"/>
<polygon fill="#000000" stroke="#000000" points="947.9749,-153.5001 937.9748,-157 947.9748,-160.5001 947.9749,-153.5001"/>
</g>
<!-- SearchComponent -->
<g id="node7" class="node">
<title>SearchComponent</title>
<polygon fill="#ffffb3" stroke="#000000" points="955.9201,-122 836.0799,-122 836.0799,-86 955.9201,-86 955.9201,-122"/>
<text text-anchor="middle" x="896" y="-99.8" font-family="Times,serif" font-size="14.00" fill="#000000">SearchComponent</text>
</g>
<!-- SearchComponent&#45;&gt;AppModule -->
<g id="edge7" class="edge">
<title>SearchComponent&#45;&gt;AppModule</title>
<path fill="none" stroke="#000000" d="M896,-122.1061C896,-122.1061 896,-140.991 896,-140.991"/>
<polygon fill="#000000" stroke="#000000" points="892.5001,-140.9909 896,-150.991 899.5001,-140.991 892.5001,-140.9909"/>
</g>
<!-- MainComponent -->
<g id="node8" class="node">
<title>MainComponent</title>
<polygon fill="#ffffb3" stroke="#000000" points="818.3823,-122 707.6177,-122 707.6177,-86 818.3823,-86 818.3823,-122"/>
<text text-anchor="middle" x="763" y="-99.8" font-family="Times,serif" font-size="14.00" fill="#000000">MainComponent</text>
</g>
<!-- MainComponent&#45;&gt;AppModule -->
<g id="edge8" class="edge">
<title>MainComponent&#45;&gt;AppModule</title>
<path fill="none" stroke="#000000" d="M763,-122.2396C763,-137.5706 763,-157 763,-157 763,-157 844.2829,-157 844.2829,-157"/>
<polygon fill="#000000" stroke="#000000" points="844.2829,-160.5001 854.2829,-157 844.2828,-153.5001 844.2829,-160.5001"/>
</g>
<!-- FooterComponent -->
<g id="node9" class="node">
<title>FooterComponent</title>
<polygon fill="#ffffb3" stroke="#000000" points="689.8809,-122 572.1191,-122 572.1191,-86 689.8809,-86 689.8809,-122"/>
<text text-anchor="middle" x="631" y="-99.8" font-family="Times,serif" font-size="14.00" fill="#000000">FooterComponent</text>
</g>
<!-- FooterComponent&#45;&gt;AppModule -->
<g id="edge9" class="edge">
<title>FooterComponent&#45;&gt;AppModule</title>
<path fill="none" stroke="#000000" d="M631,-122.0336C631,-139.0597 631,-162 631,-162 631,-162 844.3022,-162 844.3022,-162"/>
<polygon fill="#000000" stroke="#000000" points="844.3023,-165.5001 854.3022,-162 844.3022,-158.5001 844.3023,-165.5001"/>
</g>
<!-- TopComponent -->
<g id="node10" class="node">
<title>TopComponent</title>
<polygon fill="#ffffb3" stroke="#000000" points="553.8851,-122 450.1149,-122 450.1149,-86 553.8851,-86 553.8851,-122"/>
<text text-anchor="middle" x="502" y="-99.8" font-family="Times,serif" font-size="14.00" fill="#000000">TopComponent</text>
</g>
<!-- TopComponent&#45;&gt;AppModule -->
<g id="edge10" class="edge">
<title>TopComponent&#45;&gt;AppModule</title>
<path fill="none" stroke="#000000" d="M502,-122.2222C502,-140.8285 502,-167 502,-167 502,-167 844.2081,-167 844.2081,-167"/>
<polygon fill="#000000" stroke="#000000" points="844.2081,-170.5001 854.2081,-167 844.2081,-163.5001 844.2081,-170.5001"/>
</g>
<!-- AppComponent  -->
<g id="node14" class="node">
<title>AppComponent </title>
<polygon fill="#80b1d3" stroke="#000000" points="950.439,-252 841.561,-252 841.561,-216 950.439,-216 950.439,-252"/>
<text text-anchor="middle" x="896" y="-229.8" font-family="Times,serif" font-size="14.00" fill="#000000">AppComponent </text>
</g>
<!-- AppModule&#45;&gt;AppComponent  -->
<g id="edge13" class="edge">
<title>AppModule&#45;&gt;AppComponent </title>
<path fill="none" stroke="#000000" stroke-dasharray="1,5" d="M896,-187.1061C896,-187.1061 896,-205.991 896,-205.991"/>
<polygon fill="#000000" stroke="#000000" points="892.5001,-205.9909 896,-215.991 899.5001,-205.991 892.5001,-205.9909"/>
</g>
<!-- AppRoutingModule -->
<g id="node12" class="node">
<title>AppRoutingModule</title>
<polygon fill="#8dd3c7" stroke="#000000" points="426.2744,-122 423.2744,-126 402.2744,-126 399.2744,-122 297.7256,-122 297.7256,-86 426.2744,-86 426.2744,-122"/>
<text text-anchor="middle" x="362" y="-99.8" font-family="Times,serif" font-size="14.00" fill="#000000">AppRoutingModule</text>
</g>
<!-- AppRoutingModule&#45;&gt;AppModule -->
<g id="edge11" class="edge">
<title>AppRoutingModule&#45;&gt;AppModule</title>
<path fill="none" stroke="#000000" d="M362,-122.2228C362,-142.3652 362,-172 362,-172 362,-172 844.0979,-172 844.0979,-172"/>
<polygon fill="#000000" stroke="#000000" points="844.098,-175.5001 854.0979,-172 844.0979,-168.5001 844.098,-175.5001"/>
</g>
<!-- GraphQLModule -->
<g id="node13" class="node">
<title>GraphQLModule</title>
<polygon fill="#8dd3c7" stroke="#000000" points="279.691,-122 276.691,-126 255.691,-126 252.691,-122 166.309,-122 166.309,-86 279.691,-86 279.691,-122"/>
<text text-anchor="middle" x="223" y="-99.8" font-family="Times,serif" font-size="14.00" fill="#000000">GraphQLModule</text>
</g>
<!-- GraphQLModule&#45;&gt;AppModule -->
<g id="edge12" class="edge">
<title>GraphQLModule&#45;&gt;AppModule</title>
<path fill="none" stroke="#000000" d="M223,-122.0449C223,-143.6623 223,-177 223,-177 223,-177 844.1551,-177 844.1551,-177"/>
<polygon fill="#000000" stroke="#000000" points="844.1551,-180.5001 854.1551,-177 844.1551,-173.5001 844.1551,-180.5001"/>
</g>
<!-- AuthService -->
<g id="node15" class="node">
<title>AuthService</title>
<ellipse fill="#fdb462" stroke="#000000" cx="83" cy="-104" rx="59.1083" ry="18"/>
<text text-anchor="middle" x="83" y="-99.8" font-family="Times,serif" font-size="14.00" fill="#000000">AuthService</text>
</g>
<!-- AuthService&#45;&gt;AppModule -->
<g id="edge14" class="edge">
<title>AuthService&#45;&gt;AppModule</title>
<path fill="none" stroke="#000000" d="M83,-122.0908C83,-145.1328 83,-182 83,-182 83,-182 844.284,-182 844.284,-182"/>
<polygon fill="#000000" stroke="#000000" points="844.284,-185.5001 854.284,-182 844.2839,-178.5001 844.284,-185.5001"/>
</g>
</g>
</svg>
